<svg xmlns="http://www.w3.org/2000/svg" id="Logotipo-header-blanco" width="360.29" height="94.037" viewBox="0 0 360.29 94.037"><path id="Trazado_2033" data-name="Trazado 2033" d="M55.036,68.794h0c.474.474.474.474.949.474.474.474.949.949,1.423.949l.474.474h0l.949-.949,1.9-5.219h0c-2.372-14.708-3.321-30.839-3.321-30.839v-.474l-1.423,1.423a28.172,28.172,0,0,1-3.8-1.9c-.474,0-.949-.474-1.423-.474l-.949-1.9H48.393l-2.372.949H44.6l-1.9.949c-.949.474-5.219.474-5.219.474a.465.465,0,0,1-.474-.474h0l-.474.474a23.117,23.117,0,0,0-6.642,7.117h0v5.693l1.423,2.372.474,1.9c0,.949,1.9,3.8,2.372,3.8l.474.474,2.372,2.847,2.372.474h1.9l1.9-.474,3.8-1.9h1.423l.474,1.423h0a3.238,3.238,0,0,0,2.372,1.423l.949,1.423v.474h0c.949.949,2.847,2.847,2.847,3.321-.949,1.423-.474,4.27,0,5.693Zm18.5-21.35v.949h0a12.663,12.663,0,0,0,4.744,1.9h0V47.444h-.474l-2.847.949C75.437,47.919,73.539,47.444,73.539,47.444ZM43.649,17.08l-.949.949h.949l1.423-.474.949-1.423.474-.949h-.949l-1.9,1.9Zm.474-7.591v.949h1.423c.949,0,2.372-1.9,2.372-1.9l.474-.474-2.847.474-1.423.949Zm4.744,3.321-1.423.474-.474,2.847-.474.474-.474.949-.949.474v.949l1.9-.949,1.9-.474.474-.949V14.233l.949-.949-1.423-.474Zm1.423,65h.474l-1.423,1.423a40.914,40.914,0,0,1-24.2-9.963c-.474.474-.949.474-2.372.949,0,0-.949,1.9-2.372.949-1.9-.949-.949-1.423-.949-1.423L17.08,65a25.322,25.322,0,0,0-1.9,5.219s3.8,4.27,4.27,4.744.474.949.949,1.423c.474.949,3.321,6.168,5.693,8.54a4.156,4.156,0,0,0,2.847.949,5.837,5.837,0,0,0,2.372.949h1.9s0,.949-1.9,1.423-1.9,0-3.321.474-2.847.949-2.847-1.9c0,0,0-.949-1.423-1.423-1.423-.949-3.8-2.847-4.27-5.693a45.947,45.947,0,0,0-4.27-3.321c-.949-.474-1.9-.949-4.27-2.372,0,0-1.423,0-1.9-2.372l-.474-1.9v1.423h.474l.474,1.9-1.9.474-.949-1.9.949-.474V69.743a18.659,18.659,0,0,1-2.847-.949V68.32a1.656,1.656,0,0,0-.474-.949,7.486,7.486,0,0,1-1.423-3.8l-.474-1.423V61.2a6.825,6.825,0,0,0-.949-1.423C.949,59.306,0,59.306,0,57.882s.474-3.321,2.372-3.8h.949L4.27,55.51l.949.949.949-1.423S8.54,53.612,8.54,52.663l.949-.949s.949-1.9,1.9-1.9l1.423-1.423h.474a52.279,52.279,0,0,1-.949-8.54,39.853,39.853,0,0,1,79.707,0,35.378,35.378,0,0,1-1.9,12.336l-1.423-.474a34.478,34.478,0,0,0,1.9-11.861,17.79,17.79,0,0,0-.474-5.219h0a3.313,3.313,0,0,0-1.9-.949h-1.9a4.779,4.779,0,0,0-1.423-.474,4.779,4.779,0,0,0-1.423.474h-.949a.465.465,0,0,1-.474-.474v-.474a4.779,4.779,0,0,1-1.423.474h-.949l-1.423-.474-.474-.949-.474-1.423a4.779,4.779,0,0,1-1.423.474s0,3.321,1.9,4.27l.474-.474.949,1.423h1.423l.474-1.423.474,1.423,2.372,1.9L81.13,43.174s-4.744,2.847-6.168,3.8h-.949l-.949-1.9-3.321-5.219v-1.9l-.949-1.9-1.423-2.847-.474.949-.949-.474,2.847,8.066A42.858,42.858,0,0,1,64.05,34.16l1.423-2.372h.949l1.423-3.8H66.9a10.763,10.763,0,0,1-1.9.474l-.949.474-1.423-.949v-.949c0-.474.474-1.9-.949-1.9s-1.423.474-.949.949a20.548,20.548,0,0,1-.474,2.372h-.949l-.474-1.423v-.949s-1.423-2.372-3.321-2.847v.474l.949,1.423,2.372,3.321.474.949h-.949l-.949,1.423h-.474l.474-1.423-1.423-2.847L51.24,23.248a18.658,18.658,0,0,0-2.847.949c-.949.474-.949,1.9-.949,2.372l-2.372,1.423a5.837,5.837,0,0,0-.949,2.372s-1.423.474-1.423,1.423c0,0-1.423,0-1.9.474H38.43l-1.423-.474-.474-.949-.949-.474.949-2.372,1.423-2.847.474-.474H38.9l.474.474H40.8a20.549,20.549,0,0,0,2.372.474.465.465,0,0,0,.474-.474V21.824l-.474-.474.474-.474,1.423-.474h.474l3.8-1.9,1.9-1.423.474-.474,1.423-.949,1.423-2.372h.949v.949l.474.474s0,.474,1.9,0,1.423-.474,1.423-.474h.474l.949-1.423h1.9v-.474s-1.423-.474-1.423-.949c0-.949,1.9-1.423,2.372-1.9V9.014a29.086,29.086,0,0,1-3.8,2.372s-1.423,2.847-3.321,2.847a.657.657,0,0,1,0-.949,6.825,6.825,0,0,0,.949-1.423.465.465,0,0,0-.474-.474c-.474,0-.949.949-.949.949s-.949.474-1.423,0a12.177,12.177,0,0,0,.949-2.372c0-.474,0-1.423.949-1.423a4.011,4.011,0,0,0,2.847-.949A33.24,33.24,0,0,0,64.05,3.8,40.441,40.441,0,0,0,53.138,2.372a32.758,32.758,0,0,0-11.861,1.9v.474l.474.949H40.8l.474.949-.949.474-1.9,1.9-.474,1.9v.949l-2.372-1.423-1.9-3.8a20.629,20.629,0,0,1-3.321,1.9l.474,1.9.474.474-.474.949h.949l.949.949-1.423.474-3.8-.949-2.847,1.9,1.423.474,1.423.474v.949l.949,1.423h-.949l.474-.474-.949-.474H25.62a17.455,17.455,0,0,1-4.744,1.9,36.766,36.766,0,0,0-6.642,21.35A36.237,36.237,0,0,0,27.992,68.794h2.372l3.321,1.9.474,2.847h0a47.818,47.818,0,0,0,16.131,4.27Zm-38.9-19.452H12.81l.949-.949,2.372-.949a37.186,37.186,0,0,1-2.372-6.642L12.336,51.24s0,2.372-1.423,2.847l-.949,1.9L7.117,59.306v.949l3.321-.474Zm6.168.949c0-.474-.474-.949-.474-1.423h0l-.474.949a18.917,18.917,0,0,0-1.9,1.423s-2.847.949-3.321,1.9c0,0,1.423,1.423,1.423,2.372a13.375,13.375,0,0,1,4.27-5.219Zm7.117,9.014a30.7,30.7,0,0,1-3.8-4.27l.949,3.321S23.248,69.269,24.671,68.32Zm76.86-44.6c.949,2.372,6.168,11.861,1.423,28.941-2.847,9.489-.949,9.489-5.693,25.146-2.372,6.642,4.27,15.182,4.27,15.182a2.642,2.642,0,0,1-2.847.949,38.064,38.064,0,0,1-16.606-9.489,6.016,6.016,0,0,0-3.8-1.423A63.217,63.217,0,0,0,69.269,85.4c-3.8,1.9-6.168,3.321-7.117,1.423,0,0,5.693-4.27,3.8-7.117-1.9-3.321-4.27-3.321-4.744-3.321-1.9,0-6.168,5.693-8.54,3.8,0,0-.474-.474.949-1.423a32.345,32.345,0,0,0,3.321-2.372,2.11,2.11,0,0,1,.949-2.372,14.434,14.434,0,0,0,2.847-5.219c0-.474.474-2.372.949-2.372,0,0-2.847-11.861-3.321-37.007a.465.465,0,0,1,.474-.474S65,40.328,70.692,47.444a17.32,17.32,0,0,0,4.744,3.321c2.847.949,21.35,8.54,25.62,0s1.423-23.248-.949-27.043v-.949c-.474-1.423.474-.949,1.423.949ZM63.1,70.218c0,3.8,1.9,5.219,1.9,5.219C65.473,71.167,63.1,70.218,63.1,70.218Zm2.372-.474c0,4.27,1.423,5.219,1.423,5.219A5,5,0,0,0,65.473,69.743Zm2.372-.949c-.474,3.8.949,5.219.949,5.219A5.954,5.954,0,0,0,67.846,68.794Zm2.372-.474c-.474,3.321.474,4.27.474,4.27C72.116,69.743,70.218,68.32,70.218,68.32Zm8.54,12.81c-2.372-2.372-7.117-1.9-7.117-1.9A11.047,11.047,0,0,0,78.758,81.13Zm1.423-1.423a6.587,6.587,0,0,0-6.642-1.423C77.334,80.656,80.181,79.707,80.181,79.707ZM81.6,78.283a7.178,7.178,0,0,0-5.219-1.423C77.809,78.758,81.6,78.283,81.6,78.283Zm1.423-1.423c-.949-1.9-4.27-.949-4.27-.949C80.181,77.334,83.028,76.86,83.028,76.86ZM55.036,28.941h-.949v.474A1.469,1.469,0,0,0,55.036,28.941Zm-2.372.474c0,.474.474.474.949.474h0v-.474Z" fill="#fff"></path><g id="Grupo_149" data-name="Grupo 149" transform="translate(123.83 4.744)"><path id="Trazado_2034" data-name="Trazado 2034" d="M65.5,14.21C65.5,6.144,59.811,1.4,50.8,1.4H26.6V38.407h8.066V27.02H51.271C59.811,27.02,65.5,22.276,65.5,14.21ZM34.191,8.517H50.8c4.27,0,6.642,2.372,6.642,6.168s-2.372,6.168-6.642,6.168H34.191V8.517Z" transform="translate(-24.228 0.498)" fill="#fff"></path><path id="Trazado_2035" data-name="Trazado 2035" d="M44.54,39.9h2.372V34.211h-.949c-2.372,0-2.372-2.847-2.372-4.744V1H36V30.416C36,33.737,36,39.9,44.54,39.9Z" transform="translate(10.97 -1)" fill="#fff"></path><path id="Trazado_2036" data-name="Trazado 2036" d="M52.859,31.492c5.219,0,8.54-1.423,9.963-3.8l.949-1.423v4.744h8.066V14.412C71.837,7.77,69.464,3.5,57.129,3.5A46.792,46.792,0,0,0,45.742,4.923a12.069,12.069,0,0,1-3.321.949l2.372,4.744c.949-.474,1.9-.474,2.847-.949a52.279,52.279,0,0,1,8.54-.949c6.168,0,7.591,1.9,7.591,4.744v.474H63.3c-2.847,0-5.219-.474-7.591-.474-7.117,0-11.861.949-14.233,3.321A7.857,7.857,0,0,0,39.1,22.478C39.574,30.069,46.691,31.492,52.859,31.492ZM48.114,20.106c2.372-1.9,8.066-1.9,15.182-1.9h.474V20.58c0,2.372-2.372,5.219-9.014,5.219h0c-5.219,0-7.591-.949-7.591-3.321A3.624,3.624,0,0,1,48.114,20.106Z" transform="translate(22.578 8.361)" fill="#fff"></path><path id="Trazado_2037" data-name="Trazado 2037" d="M72.446,31.018h7.591V18.208C80.037,8.719,75.292,3.5,65.329,3.5c-4.27,0-7.591,1.423-9.489,4.27l-.949,1.423V4.449H47.3V31.018h7.591V18.208c0-5.693,2.847-9.014,8.54-9.014s8.54,2.847,8.54,9.014v12.81Z" transform="translate(53.282 8.361)" fill="#fff"></path><path id="Trazado_2038" data-name="Trazado 2038" d="M72.48,3.5C59.67,3.5,55.4,11.091,55.4,17.259c0,5.219,2.372,13.759,18.029,13.759,5.219,0,9.014-.949,10.912-1.9a2.086,2.086,0,0,0,2.372-.474l-3.321-4.27c-.949,0-1.9.474-2.847.474a30.959,30.959,0,0,1-8.066.949c-7.591,0-9.489-3.321-9.489-5.219v-.474H89.086c0-5.219-.949-9.489-3.8-12.336S78.173,3.5,72.48,3.5Zm9.014,12.336h-18.5v-.474c0-1.9,2.372-6.168,9.014-6.168s9.014,4.27,9.014,6.168v.474Z" transform="translate(83.612 8.361)" fill="#fff"></path><path id="Trazado_2039" data-name="Trazado 2039" d="M70.017,25.248c0,7.117,1.9,12.336,11.861,12.336a19.649,19.649,0,0,0,6.642-.949c.474,0,.949-.474,1.423-.474l-2.372-5.693c-.474,0-.474,0-.949.474a25.546,25.546,0,0,1-3.8.474c-3.8,0-4.744-1.9-4.744-6.642V15.759H88.994V10.066H77.608V2H70.017v8.066H62.9v5.693h7.117Z" transform="translate(111.696 2.744)" fill="#fff"></path><path id="Trazado_2040" data-name="Trazado 2040" d="M87.229,3.5A46.792,46.792,0,0,0,75.842,4.923a12.069,12.069,0,0,1-3.321.949l2.372,4.744c.949-.474,1.9-.474,2.847-.949a52.279,52.279,0,0,1,8.54-.949c6.168,0,7.591,1.9,7.591,4.744v.474H93.4c-2.847,0-5.219-.474-7.591-.474-7.117,0-11.861.949-14.233,3.321A7.857,7.857,0,0,0,69.2,22.478c0,7.117,7.117,8.54,13.284,8.54,5.219,0,8.54-1.423,9.963-3.8L93.4,25.8v4.744h7.591V14.412C101.937,7.77,99.564,3.5,87.229,3.5Zm7.117,17.08c0,2.372-2.372,5.219-9.014,5.219h0c-5.219,0-7.591-.949-7.591-3.321a3.624,3.624,0,0,1,.949-2.372c2.372-1.9,8.066-1.9,15.182-1.9h.474Z" transform="translate(135.286 8.361)" fill="#fff"></path><path id="Trazado_2041" data-name="Trazado 2041" d="M46.027,10.7,26.1,47.707h8.54l3.8-7.591h22.3L65,47.707H73.07L53.143,10.7Zm-3.8,23.248,7.591-14.233,7.591,14.233Z" transform="translate(-26.1 35.321)" fill="#fff"></path><path id="Trazado_2042" data-name="Trazado 2042" d="M36.8,35.773v3.321H66.69V33.4H48.661L66.69,16.321V13H37.274v5.693H54.829Z" transform="translate(13.966 43.933)" fill="#fff"></path><path id="Trazado_2043" data-name="Trazado 2043" d="M51.991,25.71V12.9H44.4V25.71c0,9.489,4.744,14.708,14.708,14.708,4.27,0,7.591-1.423,9.489-4.27l.949-1.423v4.744h7.591V12.9H69.546V25.71q0,8.54-8.54,8.54C55.312,34.25,51.991,31.4,51.991,25.71Z" transform="translate(42.423 43.559)" fill="#fff"></path><path id="Trazado_2044" data-name="Trazado 2044" d="M60.191,38.767V10.3H52.6V39.716c0,3.321,0,9.963,8.54,9.963h2.847V43.986h-.949C60.191,43.511,60.191,40.664,60.191,38.767Z" transform="translate(73.128 33.823)" fill="#fff"></path></g></svg>